<svg width="32" height="32" viewBox="0 0 32 32" fill="none" xmlns="http://www.w3.org/2000/svg">
<circle cx="16" cy="16" r="15.6" stroke="#222222" stroke-width="0.8"/>
<path fill-rule="evenodd" clip-rule="evenodd" d="M19.923 16.3452C19.9072 14.5528 21.3655 13.6808 21.4322 13.6402C20.6063 12.415 19.3262 12.2476 18.8763 12.2343C17.8012 12.1192 16.7583 12.8888 16.2106 12.8888C15.652 12.8888 14.8086 12.2454 13.8996 12.2643C12.7299 12.2827 11.6356 12.9717 11.0355 14.0417C9.79687 16.2234 10.7206 19.4295 11.9073 21.193C12.5009 22.0573 13.1945 23.021 14.1024 22.9871C14.9906 22.9504 15.3224 22.411 16.3942 22.411C17.4563 22.411 17.7678 22.9871 18.6938 22.9649C19.647 22.9504 20.2472 22.0979 20.82 21.2258C21.506 20.237 21.7815 19.261 21.7924 19.211C21.7705 19.2037 19.9416 18.4936 19.923 16.3452Z" fill="#222222"/>
<path fill-rule="evenodd" clip-rule="evenodd" d="M18.1738 11.0742C18.6515 10.4663 18.9784 9.63938 18.8877 8.80017C18.1962 8.83131 17.3315 9.28679 16.8336 9.88129C16.393 10.4052 15.9995 11.2638 16.1011 12.0713C16.8778 12.1303 17.6753 11.6726 18.1738 11.0742Z" fill="#222222"/>
</svg>
