<svg width="152" height="46" viewBox="0 0 152 46" fill="none" xmlns="http://www.w3.org/2000/svg">
<rect x="0.513" y="0.513" width="150.974" height="44.974" rx="3.591" fill="black"/>
<rect x="0.513" y="0.513" width="150.974" height="44.974" rx="3.591" stroke="#A6A6A6" stroke-width="1.026"/>
<rect x="0.513" y="0.513" width="150.974" height="44.974" rx="3.591" stroke="#8F8F8F" stroke-width="1.026"/>
<path fill-rule="evenodd" clip-rule="evenodd" d="M57.1916 34.5592H59.6959L54.2138 19.1105H51.6779L46.1958 34.5592H48.6159L50.0154 30.4588H55.8026L57.1916 34.5592ZM52.8248 21.9155H53.0037L55.2029 28.4461H50.6151L52.8248 21.9155ZM66.336 22.7077C64.7788 22.7077 63.4319 23.5 62.7374 24.8275H62.5691V22.9004H60.391V38.3384H62.6533V32.7927H62.8321C63.4319 34.0239 64.7261 34.7519 66.3571 34.7519C69.2507 34.7519 71.0921 32.4287 71.0921 28.7245C71.0921 25.0202 69.2507 22.7077 66.336 22.7077ZM65.6942 32.6857C63.8002 32.6857 62.6112 31.1654 62.6112 28.7352C62.6112 26.2942 63.8002 24.774 65.7047 24.774C67.6198 24.774 68.7667 26.2621 68.7667 28.7245C68.7667 31.1975 67.6198 32.6857 65.6942 32.6857ZM78.069 22.7077C76.5117 22.7077 75.1649 23.5 74.4704 24.8275H74.302V22.9004H72.1239V38.3384H74.3862V32.7927H74.5651C75.1649 34.0239 76.4591 34.7519 78.09 34.7519C80.9837 34.7519 82.8251 32.4287 82.8251 28.7245C82.8251 25.0202 80.9837 22.7077 78.069 22.7077ZM77.4271 32.6857C75.5331 32.6857 74.3441 31.1654 74.3441 28.7352C74.3441 26.2942 75.5331 24.774 77.4377 24.774C79.3527 24.774 80.4996 26.2621 80.4996 28.7245C80.4996 31.1975 79.3527 32.6857 77.4271 32.6857ZM87.614 30.4053C87.7823 33.1674 90.0446 34.9339 93.4117 34.9339C97.0104 34.9339 99.2621 33.0818 99.2621 30.127C99.2621 27.8038 97.9784 26.5191 94.8638 25.7803L93.1908 25.3628C91.2126 24.8918 90.4129 24.2601 90.4129 23.1574C90.4129 21.7656 91.6545 20.8556 93.517 20.8556C95.2847 20.8556 96.5053 21.7442 96.7263 23.1681H99.0201C98.8833 20.5666 96.6316 18.7358 93.5485 18.7358C90.234 18.7358 88.0243 20.5666 88.0243 23.318C88.0243 25.5876 89.2765 26.9366 92.0228 27.5896L93.9799 28.0714C95.9897 28.5532 96.8736 29.2598 96.8736 30.4374C96.8736 31.8078 95.4846 32.8034 93.5906 32.8034C91.5598 32.8034 90.1498 31.872 89.9499 30.4053H87.614ZM101.209 20.0741V22.954H99.3259V24.8918H101.209V31.4759C101.209 33.7241 102.209 34.6234 104.724 34.6234C105.166 34.6234 105.576 34.5699 105.934 34.5057V32.5893C105.618 32.6214 105.439 32.6428 105.092 32.6428C103.966 32.6428 103.472 32.1076 103.472 30.8871V24.8918H106.039V22.954H103.472V20.0741H101.209ZM111.648 32.7392C109.68 32.7392 108.576 31.2725 108.576 28.7245C108.576 26.1979 109.68 24.7205 111.648 24.7205C113.605 24.7205 114.721 26.1979 114.721 28.7245C114.721 31.2618 113.605 32.7392 111.648 32.7392ZM111.648 34.784C114.994 34.784 117.046 32.5037 117.046 28.7245C117.046 24.9667 114.984 22.6756 111.648 22.6756C108.302 22.6756 106.24 24.9667 106.24 28.7245C106.24 32.5037 108.292 34.784 111.648 34.784ZM118.078 34.5592H120.34V27.6753C120.34 26.0373 121.55 24.9346 123.255 24.9346C123.634 24.9346 124.328 25.0095 124.507 25.0738V22.8041C124.265 22.7399 123.834 22.7077 123.507 22.7077C122.013 22.7077 120.75 23.5428 120.424 24.6883H120.256V22.9004H118.078V34.5592ZM129.6 24.6348C131.273 24.6348 132.368 25.8232 132.42 27.6539H126.633C126.759 25.8339 127.927 24.6348 129.6 24.6348ZM132.41 31.4117C131.989 32.3217 131.052 32.8249 129.685 32.8249C127.875 32.8249 126.707 31.5294 126.633 29.4846V29.3561H134.725V28.5532C134.725 24.8918 132.799 22.6756 129.611 22.6756C126.381 22.6756 124.329 25.0416 124.329 28.7673C124.329 32.493 126.338 34.784 129.621 34.784C132.241 34.784 134.072 33.4993 134.588 31.4117H132.41Z" fill="white"/>
<path fill-rule="evenodd" clip-rule="evenodd" d="M48.3159 7.0519V14.4084H50.9264C53.081 14.4084 54.3286 13.0574 54.3286 10.7072C54.3286 8.39269 53.071 7.0519 50.9264 7.0519H48.3159ZM49.4383 8.09191H50.8012C52.2993 8.09191 53.1862 9.06054 53.1862 10.7225C53.1862 12.41 52.3144 13.3684 50.8012 13.3684H49.4383V8.09191ZM58.278 13.5417C57.341 13.5417 56.8149 12.8433 56.8149 11.63C56.8149 10.4268 57.341 9.72329 58.278 9.72329C59.21 9.72329 59.7411 10.4268 59.7411 11.63C59.7411 12.8382 59.21 13.5417 58.278 13.5417ZM58.278 14.5155C59.8714 14.5155 60.8484 13.4296 60.8484 11.63C60.8484 9.84055 59.8664 8.74956 58.278 8.74956C56.6846 8.74956 55.7025 9.84055 55.7025 11.63C55.7025 13.4296 56.6796 14.5155 58.278 14.5155ZM69.2923 8.85662H68.215L67.243 13.0931H67.1578L66.0354 8.85662H65.0032L63.8808 13.0931H63.8007L62.8236 8.85662H61.7313L63.2345 14.4084H64.3418L65.4642 10.3198H65.5494L66.6768 14.4084H67.7941L69.2923 8.85662ZM70.6612 14.4084H71.7385V11.1609C71.7385 10.2943 72.2696 9.75388 73.1364 9.75388C73.9381 9.75388 74.3289 10.1974 74.3289 11.0896V14.4084H75.4062V10.8143C75.4062 9.49388 74.7198 8.74956 73.5022 8.74956C72.6805 8.74956 72.0441 9.12172 71.7786 9.73858H71.6984V8.85662H70.6612V14.4084ZM77.2261 14.4084H78.3034V6.68994H77.2261V14.4084ZM82.4782 13.5417C81.5412 13.5417 81.0151 12.8433 81.0151 11.63C81.0151 10.4268 81.5412 9.72329 82.4782 9.72329C83.4102 9.72329 83.9413 10.4268 83.9413 11.63C83.9413 12.8382 83.4102 13.5417 82.4782 13.5417ZM82.4782 14.5155C84.0716 14.5155 85.0486 13.4296 85.0486 11.63C85.0486 9.84055 84.0665 8.74956 82.4782 8.74956C80.8848 8.74956 79.9027 9.84055 79.9027 11.63C79.9027 13.4296 80.8798 14.5155 82.4782 14.5155ZM88.3817 13.5774C87.7954 13.5774 87.3695 13.2868 87.3695 12.7872C87.3695 12.2978 87.7103 12.0378 88.4618 11.9868L89.7947 11.9002V12.3641C89.7947 13.0523 89.1934 13.5774 88.3817 13.5774ZM88.1061 14.5002C88.8226 14.5002 89.4189 14.1841 89.7446 13.6284H89.8297V14.4084H90.8669V10.6155C90.8669 9.4429 90.0953 8.74956 88.7274 8.74956C87.4898 8.74956 86.6079 9.36133 86.4977 10.3147H87.5399C87.6601 9.92211 88.076 9.6978 88.6773 9.6978C89.4139 9.6978 89.7947 10.0292 89.7947 10.6155V11.0947L88.3165 11.1813C87.0188 11.2629 86.2872 11.839 86.2872 12.8382C86.2872 13.8527 87.0539 14.5002 88.1061 14.5002ZM94.6509 14.5002C95.4025 14.5002 96.0389 14.1382 96.3646 13.5315H96.4497V14.4084H97.4819V6.68994H96.4046V9.73858H96.3245C96.0289 9.12682 95.3975 8.76485 94.6509 8.76485C93.273 8.76485 92.3861 9.87623 92.3861 11.63C92.3861 13.3888 93.263 14.5002 94.6509 14.5002ZM94.9566 9.74878C95.8585 9.74878 96.4247 10.4778 96.4247 11.6351C96.4247 12.7974 95.8635 13.5162 94.9566 13.5162C94.0447 13.5162 93.4985 12.8076 93.4985 11.63C93.4985 10.4625 94.0497 9.74878 94.9566 9.74878ZM104.719 13.5417C103.782 13.5417 103.256 12.8433 103.256 11.63C103.256 10.4268 103.782 9.72329 104.719 9.72329C105.651 9.72329 106.182 10.4268 106.182 11.63C106.182 12.8382 105.651 13.5417 104.719 13.5417ZM104.719 14.5155C106.313 14.5155 107.29 13.4296 107.29 11.63C107.29 9.84055 106.308 8.74956 104.719 8.74956C103.126 8.74956 102.144 9.84055 102.144 11.63C102.144 13.4296 103.121 14.5155 104.719 14.5155ZM108.839 14.4084H109.916V11.1609C109.916 10.2943 110.447 9.75388 111.314 9.75388C112.116 9.75388 112.507 10.1974 112.507 11.0896V14.4084H113.584V10.8143C113.584 9.49388 112.898 8.74956 111.68 8.74956C110.858 8.74956 110.222 9.12172 109.956 9.73858H109.876V8.85662H108.839V14.4084ZM118.797 7.51073V8.88211H117.9V9.80486H118.797V12.9402C118.797 14.0108 119.273 14.439 120.471 14.439C120.681 14.439 120.876 14.4135 121.047 14.3829V13.4704C120.896 13.4857 120.811 13.4959 120.646 13.4959C120.11 13.4959 119.874 13.241 119.874 12.6598V9.80486H121.097V8.88211H119.874V7.51073H118.797ZM122.631 14.4084H123.708V11.166C123.708 10.3249 124.255 9.75898 125.136 9.75898C125.948 9.75898 126.354 10.2076 126.354 11.0947V14.4084H127.431V10.8245C127.431 9.50407 126.73 8.75466 125.502 8.75466C124.68 8.75466 124.049 9.12682 123.784 9.74878H123.698V6.68994H122.631V14.4084ZM131.446 9.68251C132.242 9.68251 132.764 10.2484 132.789 11.1202H130.033C130.093 10.2535 130.649 9.68251 131.446 9.68251ZM132.784 12.9096C132.583 13.3429 132.137 13.5825 131.486 13.5825C130.624 13.5825 130.068 12.9657 130.033 11.9919V11.9308H133.886V11.5484C133.886 9.80486 132.969 8.74956 131.451 8.74956C129.913 8.74956 128.935 9.87623 128.935 11.6504C128.935 13.4245 129.892 14.5155 131.456 14.5155C132.703 14.5155 133.575 13.9037 133.821 12.9096H132.784Z" fill="white"/>
<path fill-rule="evenodd" clip-rule="evenodd" d="M33.1802 23.7145C33.1471 19.9803 36.1853 18.1636 36.3242 18.079C34.6036 15.5266 31.9367 15.1779 30.9995 15.1501C28.7596 14.9102 26.5869 16.5137 25.4459 16.5137C24.2821 16.5137 22.525 15.1732 20.6313 15.2126C18.1944 15.2509 15.9147 16.6864 14.6644 18.9155C12.084 23.4608 14.0084 30.1402 16.4806 33.8141C17.7173 35.6146 19.1623 37.6225 21.0538 37.5518C22.9042 37.4753 23.5954 36.3515 25.8285 36.3515C28.0411 36.3515 28.6901 37.5518 30.6191 37.5055C32.6051 37.4753 33.8554 35.6992 35.0488 33.8825C36.4779 31.8225 37.0519 29.7891 37.0746 29.6848C37.0291 29.6698 33.2189 28.1902 33.1802 23.7145Z" fill="white"/>
<path fill-rule="evenodd" clip-rule="evenodd" d="M29.5363 12.7332C30.5316 11.4668 31.2126 9.74395 31.0235 7.99561C29.583 8.06049 27.7816 9.00939 26.7442 10.2479C25.8264 11.3394 25.0065 13.1283 25.2183 14.8106C26.8364 14.9334 28.4978 13.9798 29.5363 12.7332Z" fill="white"/>
</svg>
