<svg width="84" height="84" viewBox="0 0 84 84" fill="none" xmlns="http://www.w3.org/2000/svg">
<g clip-path="url(#clip0)">
<path fill-rule="evenodd" clip-rule="evenodd" d="M29.1721 15.8417L41.9533 3.06539L54.7345 15.8417C55.4602 16.5674 56.0199 17.4011 56.4072 18.2889H58.7367C58.2459 16.8326 57.4225 15.4691 56.2651 14.3116L41.9533 -0.00012207L27.6367 14.3116C26.4797 15.4691 25.6559 16.8326 25.1704 18.2889H27.4995C27.8872 17.4011 28.4464 16.5674 29.1721 15.8417Z" fill="#00D09C"/>
<path d="M29.1721 15.8417L41.9533 3.06539L54.7345 15.8417C55.4602 16.5674 56.0199 17.4011 56.4072 18.2889H58.7367C58.2459 16.8326 57.4225 15.4691 56.2651 14.3116L41.9533 -0.00012207L27.6367 14.3116C26.4797 15.4691 25.6559 16.8326 25.1704 18.2889H27.4995C27.8872 17.4011 28.4464 16.5674 29.1721 15.8417" stroke="#00D09C" stroke-width="1.2"/>
<path fill-rule="evenodd" clip-rule="evenodd" d="M54.7343 68.0603L41.9531 80.8415L29.1719 68.0603C28.4462 67.3341 27.887 66.5004 27.4992 65.6125H25.1702C25.6556 67.0694 26.48 68.4378 27.6369 69.5952L41.9531 83.9065L56.2648 69.5952C57.4271 68.4378 58.251 67.0694 58.7365 65.6125H56.4069C56.0197 66.5004 55.46 67.3341 54.7343 68.0603Z" fill="#00D09C"/>
<path d="M54.7343 68.0603L41.9531 80.8415L29.1719 68.0603C28.4462 67.3341 27.887 66.5004 27.4992 65.6125H25.1702C25.6556 67.0694 26.48 68.4378 27.6369 69.5952L41.9531 83.9065L56.2648 69.5952C57.4271 68.4378 58.251 67.0694 58.7365 65.6125H56.4069C56.0197 66.5004 55.46 67.3341 54.7343 68.0603" stroke="#00D09C" stroke-width="1.2"/>
<path d="M31.78 53.48L38.56 38.06H38.62L41.26 53H44.17L39.55 29.42L31.78 47.24L24.01 29.42L19.39 53H22.3L24.94 38.06H25L31.78 53.48ZM62.0976 32.96V30.38H51.1476V53H53.9676V41.9H61.8276V39.32H53.9676V32.96H62.0976Z" fill="#00D09C"/>
<path fill-rule="evenodd" clip-rule="evenodd" d="M0 41.9534L14.3117 56.2647C15.4692 57.4221 16.8327 58.2465 18.289 58.7368V56.4117C17.387 56.0146 16.5578 55.4506 15.8418 54.7346L3.06551 41.9534L15.8418 29.1723C16.5578 28.4563 17.387 27.8873 18.289 27.4952V25.17C16.8327 25.6609 15.4692 26.4799 14.3117 27.6373L0 41.9534Z" fill="#00D09C" stroke="#00D09C" stroke-width="1.2"/>
<path fill-rule="evenodd" clip-rule="evenodd" d="M69.5952 27.6371C68.4329 26.4796 67.0694 25.6557 65.6125 25.1703V27.4949C66.5102 27.8871 67.3443 28.4561 68.0598 29.1725L80.841 41.9532L68.0598 54.7344C67.3443 55.4508 66.5102 56.0144 65.6125 56.4119V58.7366C67.0694 58.2511 68.4329 57.4273 69.5952 56.2649L83.9065 41.9532L69.5952 27.6371Z" fill="#00D09C" stroke="#00D09C" stroke-width="1.2"/>
</g>
<defs>
<clipPath id="clip0">
<rect width="84" height="84" fill="white"/>
</clipPath>
</defs>
</svg>
