<svg width="7" height="14" viewBox="0 0 7 14" fill="none" xmlns="http://www.w3.org/2000/svg">
<path id="Facebook" d="M1.51301 2.59689C1.51301 2.92642 1.51301 4.39722 1.51301 4.39722H0V6.59868H1.51301V13.1406H4.62106V6.59886H6.70671C6.70671 6.59886 6.90204 5.54328 6.99672 4.38911C6.72526 4.38911 4.63282 4.38911 4.63282 4.38911C4.63282 4.38911 4.63282 3.10837 4.63282 2.88388C4.63282 2.65891 4.97169 2.35629 5.30662 2.35629C5.64092 2.35629 6.34649 2.35629 7 2.35629C7 2.05656 7 1.02092 7 0.0644531C6.12759 0.0644531 5.13507 0.0644531 4.69758 0.0644531C1.43619 0.0643011 1.51301 2.26794 1.51301 2.59689Z" fill="#222222"/>
</svg>
