<svg width="32" height="32" viewBox="0 0 32 32" fill="none" xmlns="http://www.w3.org/2000/svg">
<circle cx="16" cy="16" r="15.6" stroke="#222222" stroke-width="0.8"/>
<path fill-rule="evenodd" clip-rule="evenodd" d="M12.7889 9.82859C12.2891 9.55233 11.7022 9.55871 11.2056 9.83258L17.0262 15.2021L18.9816 13.2467L12.7889 9.82859Z" fill="#222222"/>
<path fill-rule="evenodd" clip-rule="evenodd" d="M10.6235 10.3818C10.4813 10.6142 10.3999 10.8801 10.3999 11.1619V20.8598C10.3999 21.1328 10.4742 21.3931 10.6083 21.6207L16.4617 15.7673L10.6235 10.3818Z" fill="#222222"/>
<path fill-rule="evenodd" clip-rule="evenodd" d="M21.5739 14.6775L19.7087 13.6483L17.6128 15.7434L20.1814 18.1124L21.5747 17.3435C22.0761 17.0656 22.3763 16.5674 22.3763 16.0101C22.3755 15.4528 22.0761 14.9546 21.5739 14.6775Z" fill="#222222"/>
<path fill-rule="evenodd" clip-rule="evenodd" d="M17.0485 16.3087L11.1792 22.1781C11.4339 22.3234 11.7134 22.4 11.9944 22.4C12.2659 22.4 12.5389 22.3314 12.7889 22.1932L19.4455 18.5196L17.0485 16.3087Z" fill="#222222"/>
</svg>
