<svg width="155" height="46" viewBox="0 0 155 46" fill="none" xmlns="http://www.w3.org/2000/svg">
<g filter="url(#filter0_d)">
<rect x="3.513" y="0.513" width="150.974" height="44.89" rx="4.617" fill="black"/>
<rect x="3.513" y="0.513" width="150.974" height="44.89" rx="4.617" stroke="#A6A6A6" stroke-width="1.026"/>
<rect x="3.513" y="0.513" width="150.974" height="44.89" rx="4.617" stroke="#8F8F8F" stroke-width="1.026"/>
<path fill-rule="evenodd" clip-rule="evenodd" d="M83.5485 15.2636C85.5809 15.2636 87.2284 13.5786 87.2284 11.5C87.2284 9.42137 85.5809 7.73633 83.5485 7.73633C81.5162 7.73633 79.8687 9.42137 79.8687 11.5C79.8687 13.5786 81.5162 15.2636 83.5485 15.2636ZM83.5485 14.1136C84.9599 14.1136 86.104 12.9434 86.104 11.5C86.104 10.0565 84.9599 8.88633 83.5485 8.88633C82.1372 8.88633 80.9931 10.0565 80.9931 11.5C80.9931 12.9434 82.1372 14.1136 83.5485 14.1136Z" fill="white"/>
<path fill-rule="evenodd" clip-rule="evenodd" d="M61.5717 8.04993H57.4829V8.15447V8.88629V11.0817V11.9181V14.2181V15.0545H58.6073H61.5717V14.2181H58.6073V11.9181H61.265V11.0817H58.6073V8.88629H61.5717V8.04993Z" fill="white"/>
<path fill-rule="evenodd" clip-rule="evenodd" d="M64.4335 8.04993H62.6958V8.88629H64.4335V15.0545H65.5579V8.88629H67.2957V8.04993H65.5579H64.4335Z" fill="white"/>
<path fill-rule="evenodd" clip-rule="evenodd" d="M74.4511 8.04993H72.7134V8.88629H74.4511V15.0545H75.5755V8.88629H77.3132V8.04993H75.5755H74.4511Z" fill="white"/>
<path fill-rule="evenodd" clip-rule="evenodd" d="M70.5669 8.04993H71.6913V15.0545H70.5669V8.04993Z" fill="white"/>
<path fill-rule="evenodd" clip-rule="evenodd" d="M88.1484 8.04993H88.3529H89.2728H89.4773L92.5439 13.1752V8.04993H93.6683V15.0545H92.5439L89.2728 9.58751V15.0545H88.1484V8.04993Z" fill="white"/>
<path fill-rule="evenodd" clip-rule="evenodd" d="M53.2695 11.2041H56.3481L56.3176 12.2006H53.2695V11.2041Z" fill="white"/>
<path fill-rule="evenodd" clip-rule="evenodd" d="M56.6487 11.5311C56.6487 13.5692 55.0734 15.2214 53.1303 15.2214C51.1871 15.2214 49.6118 13.5692 49.6118 11.5311C49.6118 9.49303 51.1871 7.84082 53.1303 7.84082C54.1177 7.84082 55.0101 8.26746 55.6491 8.95457L54.9712 9.64713C54.5129 9.166 53.8801 8.86848 53.1812 8.86848C51.7823 8.86848 50.6482 10.0605 50.6482 11.531C50.6482 13.0015 51.7823 14.1936 53.1812 14.1936C54.5802 14.1936 55.7143 13.0015 55.7143 11.531C55.7143 11.4203 55.7079 11.3112 55.6954 11.2041H56.6351C56.6441 11.3118 56.6487 11.4209 56.6487 11.5311Z" fill="white"/>
<path fill-rule="evenodd" clip-rule="evenodd" d="M119.192 20.5955H113.397V29.5926H119.192C119.192 29.5926 122.528 29.0121 122.528 25.094C122.528 21.176 119.192 20.5955 119.192 20.5955ZM118.455 22.7718H114.521V27.6H118.455C118.455 27.6 120.246 27.6 120.246 25.1859C120.246 22.7718 118.455 22.7718 118.455 22.7718Z" fill="white"/>
<rect x="112.886" y="20.5955" width="2.04438" height="14.6364" fill="white"/>
<rect x="123.721" y="20.5955" width="2.04438" height="14.6364" fill="white"/>
<path fill-rule="evenodd" clip-rule="evenodd" d="M131.227 25.5092C128.368 25.5092 127.415 27.5183 127.415 27.5183L129.118 28.5476C129.118 28.5476 129.529 27.5183 131.39 27.5183C132.745 27.5183 133.197 28.5648 133.343 29.1343V29.5644C132.749 29.2692 131.464 28.8042 129.629 29.0833C127.141 29.4617 127.19 31.7635 127.198 32.1268C127.198 32.1418 127.199 32.1535 127.199 32.1616C127.199 32.3666 127.2 35.4067 130.458 35.1986C131.88 35.1078 132.78 34.6606 133.343 34.1854V35.2272H135.387V28.8741L135.388 28.8618C135.388 28.0171 134.782 25.5092 131.227 25.5092ZM129.122 32.2276C129.258 29.9646 133.197 31.0504 133.197 31.0504C133.197 31.0504 133.25 31.2896 133.25 31.7997C132.9 33.4039 128.985 34.4905 129.122 32.2276Z" fill="white"/>
<path fill-rule="evenodd" clip-rule="evenodd" d="M140.246 32.1935L137.623 25.8228H135.579L139.223 34.6765L137.316 39.3091H139.361L144.892 25.8734H142.847L140.246 32.1935Z" fill="white"/>
<path fill-rule="evenodd" clip-rule="evenodd" d="M103.985 25.5092C107.413 25.5092 108.309 29.2441 108.309 29.2441L101.843 31.9771C101.843 31.9771 102.261 33.4887 104.205 33.4988C105.727 33.5068 106.586 32.1189 106.586 32.1189L108.227 33.2551C108.227 33.2551 106.903 35.4448 104.192 35.4448C100.86 35.4448 99.3931 32.4653 99.3931 30.5303C99.3931 28.666 100.558 25.5092 103.985 25.5092ZM103.788 27.4375C105.036 27.204 105.849 28.4699 105.849 28.4699L101.481 30.2933C101.481 30.2933 101.149 27.9313 103.788 27.4375Z" fill="white"/>
<rect x="96.3262" y="20.5955" width="2.16284" height="14.6056" fill="white"/>
<path fill-rule="evenodd" clip-rule="evenodd" d="M92.8651 26.7381V25.8266L94.8645 25.8442V35.0599C94.8645 37.4145 93.4938 39.9 90.2669 39.9C87.0401 39.9 85.9979 36.9759 85.9979 36.9759L87.8341 36.1861C87.8341 36.1861 88.3942 37.9882 90.3624 37.9882C92.6037 37.9882 92.8654 35.9027 92.8654 35.1888V34.1887C92.8654 34.1887 92.0898 35.4301 90.1636 35.4301C88.0751 35.4301 85.5933 33.6 85.5933 30.4801C85.5933 27.3602 87.9302 25.5756 90.1877 25.5107C91.996 25.4587 92.8651 26.7381 92.8651 26.7381ZM90.3343 33.5574C91.7923 33.5574 92.9742 32.1914 92.9742 30.5064C92.9742 28.8214 91.7923 27.4555 90.3343 27.4555C88.8763 27.4555 87.6943 28.8214 87.6943 30.5064C87.6943 32.1914 88.8763 33.5574 90.3343 33.5574Z" fill="white"/>
<path fill-rule="evenodd" clip-rule="evenodd" d="M79.8288 35.441C82.5164 35.441 84.6952 33.2177 84.6952 30.4751C84.6952 27.7325 82.5164 25.5092 79.8288 25.5092C77.1412 25.5092 74.9624 27.7325 74.9624 30.4751C74.9624 33.2177 77.1412 35.441 79.8288 35.441ZM79.797 33.4936C81.3077 33.4936 82.5323 32.1421 82.5323 30.4751C82.5323 28.808 81.3077 27.4566 79.797 27.4566C78.2863 27.4566 77.0616 28.808 77.0616 30.4751C77.0616 32.1421 78.2863 33.4936 79.797 33.4936Z" fill="white"/>
<path fill-rule="evenodd" clip-rule="evenodd" d="M69.3005 35.441C71.9881 35.441 74.1668 33.2177 74.1668 30.4751C74.1668 27.7325 71.9881 25.5092 69.3005 25.5092C66.6128 25.5092 64.4341 27.7325 64.4341 30.4751C64.4341 33.2177 66.6128 35.441 69.3005 35.441ZM69.2687 33.4936C70.7793 33.4936 72.004 32.1421 72.004 30.4751C72.004 28.808 70.7793 27.4566 69.2687 27.4566C67.758 27.4566 66.5333 28.808 66.5333 30.4751C66.5333 32.1421 67.758 33.4936 69.2687 33.4936Z" fill="white"/>
<path fill-rule="evenodd" clip-rule="evenodd" d="M56.7344 27.0835H63.1593L63.0957 29.1607H56.7344V27.0835Z" fill="white"/>
<path fill-rule="evenodd" clip-rule="evenodd" d="M63.7868 27.7652C63.7868 32.0137 60.4993 35.4577 56.4439 35.4577C52.3886 35.4577 49.1011 32.0137 49.1011 27.7652C49.1011 23.5168 52.3886 20.0728 56.4439 20.0728C58.5047 20.0728 60.3671 20.9621 61.7007 22.3944L60.286 23.838C59.3295 22.8351 58.0089 22.2149 56.5503 22.2149C53.6307 22.2149 51.2639 24.6998 51.2639 27.765C51.2639 30.8303 53.6307 33.3152 56.5503 33.3152C59.4699 33.3152 61.8367 30.8303 61.8367 27.765C61.8367 27.5343 61.8233 27.3068 61.7972 27.0834H63.7583C63.7771 27.3081 63.7868 27.5355 63.7868 27.7652Z" fill="white"/>
<path fill-rule="evenodd" clip-rule="evenodd" d="M36.964 20.0824C39.1786 21.314 39.1787 24.4993 36.9641 25.7309L18.67 35.9048C16.516 37.1027 13.8678 35.5452 13.8678 33.0806L13.8678 12.7331C13.8678 10.2684 16.516 8.711 18.67 9.90885L36.964 20.0824Z" fill="url(#paint0_linear)"/>
<mask id="mask0" style="mask-type:alpha" maskUnits="userSpaceOnUse" x="13" y="9" width="26" height="28">
<path fill-rule="evenodd" clip-rule="evenodd" d="M36.964 20.0824C39.1786 21.314 39.1787 24.4993 36.9641 25.7309L18.67 35.9048C16.516 37.1027 13.8678 35.5452 13.8678 33.0806L13.8678 12.7331C13.8678 10.2684 16.516 8.711 18.67 9.90885L36.964 20.0824Z" fill="white"/>
</mask>
<g mask="url(#mask0)">
<path fill-rule="evenodd" clip-rule="evenodd" d="M14.1421 8.14429L28.431 22.6693L13.9575 37.7685L14.1421 8.14429Z" fill="url(#paint1_linear)"/>
<path fill-rule="evenodd" clip-rule="evenodd" d="M11.2036 5.15405L28.4292 22.6736L33.5505 17.6767L11.2036 5.15405Z" fill="url(#paint2_linear)"/>
<path fill-rule="evenodd" clip-rule="evenodd" d="M28.4314 22.6702L36.2717 30.7526L12.8496 38.8351L28.4314 22.6702Z" fill="url(#paint3_linear)"/>
</g>
</g>
<defs>
<filter id="filter0_d" x="0" y="-3" width="162" height="55.916" filterUnits="userSpaceOnUse" color-interpolation-filters="sRGB">
<feFlood flood-opacity="0" result="BackgroundImageFix"/>
<feColorMatrix in="SourceAlpha" type="matrix" values="0 0 0 0 0 0 0 0 0 0 0 0 0 0 0 0 0 0 127 0" result="hardAlpha"/>
<feOffset dx="2" dy="2"/>
<feGaussianBlur stdDeviation="2.5"/>
<feColorMatrix type="matrix" values="0 0 0 0 0 0 0 0 0 0 0 0 0 0 0 0 0 0 0.1 0"/>
<feBlend mode="normal" in2="BackgroundImageFix" result="effect1_dropShadow"/>
<feBlend mode="normal" in="SourceGraphic" in2="effect1_dropShadow" result="shape"/>
</filter>
<linearGradient id="paint0_linear" x1="40.3618" y1="17.285" x2="30.0523" y2="17.285" gradientUnits="userSpaceOnUse">
<stop stop-color="#FBDA09"/>
<stop offset="1" stop-color="#FFBC00"/>
</linearGradient>
<linearGradient id="paint1_linear" x1="15.3609" y1="35.733" x2="25.9789" y2="34.2814" gradientUnits="userSpaceOnUse">
<stop stop-color="#01E2FF"/>
<stop offset="1" stop-color="#01C4FF"/>
</linearGradient>
<linearGradient id="paint2_linear" x1="8.63849" y1="14.2417" x2="19.4493" y2="28.0271" gradientUnits="userSpaceOnUse">
<stop stop-color="#28D781"/>
<stop offset="1" stop-color="#02F076"/>
</linearGradient>
<linearGradient id="paint3_linear" x1="21.659" y1="20.2842" x2="12.3736" y2="35.697" gradientUnits="userSpaceOnUse">
<stop stop-color="#F2414E"/>
<stop offset="1" stop-color="#E02554"/>
</linearGradient>
</defs>
</svg>
