<svg width="13" height="13" viewBox="0 0 13 13" fill="none" xmlns="http://www.w3.org/2000/svg">
<path fill-rule="evenodd" clip-rule="evenodd" d="M9.18929 0H3.41071C1.53001 0 0 1.53001 0 3.41071V9.18939C0 11.07 1.53001 12.6 3.41071 12.6H9.18939C11.07 12.6 12.6 11.07 12.6 9.18939V3.41071C12.6 1.53001 11.07 0 9.18929 0ZM6.3 9.74522C4.40027 9.74522 2.85478 8.19973 2.85478 6.3C2.85478 4.40027 4.40027 2.85478 6.3 2.85478C8.19973 2.85478 9.74522 4.40027 9.74522 6.3C9.74522 8.19973 8.19973 9.74522 6.3 9.74522ZM8.80958 2.64926C8.80958 3.21066 9.2662 3.66728 9.8276 3.66728C10.389 3.66728 10.8457 3.21066 10.8457 2.64926C10.8457 2.08786 10.389 1.63114 9.8276 1.63114C9.2662 1.63114 8.80958 2.08786 8.80958 2.64926Z" fill="#222222"/>
<path d="M6.29981 3.59351C4.80748 3.59351 3.59326 4.80763 3.59326 6.30006C3.59326 7.79238 4.80748 9.00661 6.29981 9.00661C7.79224 9.00661 9.00636 7.79238 9.00636 6.30006C9.00636 4.80763 7.79224 3.59351 6.29981 3.59351Z" fill="#222222"/>
<path d="M9.82769 2.36987C9.67369 2.36987 9.54834 2.49523 9.54834 2.64923C9.54834 2.80323 9.67369 2.92858 9.82769 2.92858C9.98179 2.92858 10.1071 2.80332 10.1071 2.64923C10.1071 2.49513 9.98179 2.36987 9.82769 2.36987Z" fill="#222222"/>
</svg>
