<svg width="62" height="62" viewBox="0 0 62 62" fill="none" xmlns="http://www.w3.org/2000/svg">
<rect width="62" height="62" rx="4" fill="#E8F9F5"/>
<path d="M33.5464 35.9932C33.434 35.8701 33.2917 35.778 33.1448 35.7013C32.8248 35.5345 32.4749 35.4333 32.1274 35.3419V38.0343C32.6914 37.9705 33.3388 37.7659 33.6349 37.2394C33.7763 36.9879 33.8044 36.6789 33.7468 36.3989C33.7156 36.2472 33.6511 36.108 33.5464 35.9932Z" fill="#00D09C"/>
<path d="M33.646 37.2602C33.6476 37.2575 33.6485 37.2558 33.6502 37.2529C33.6488 37.2553 33.6474 37.2577 33.646 37.2602Z" fill="black"/>
<path d="M29.4822 31.6892C29.3852 31.8308 29.3244 31.9916 29.3076 32.1626C29.2908 32.3339 29.3002 32.5245 29.3653 32.6858C29.4273 32.8394 29.5571 32.9529 29.6911 33.0443C29.8414 33.1465 30.0068 33.2264 30.1752 33.2941C30.3165 33.351 30.4754 33.4054 30.6467 33.4579V31.0217C30.214 31.114 29.7411 31.3112 29.4822 31.6892Z" fill="#00D09C"/>
<path d="M33.6631 37.23C33.6581 37.2389 33.6527 37.2482 33.6474 37.258C33.6536 37.2466 33.6585 37.2382 33.6631 37.23Z" fill="black"/>
<path d="M33.6747 37.2091C33.676 37.2067 33.6762 37.2065 33.6747 37.2091V37.2091Z" fill="black"/>
<path fill-rule="evenodd" clip-rule="evenodd" d="M35.9539 16.1028C36.8954 16.2923 35.3656 20.6254 33.076 22.5488C41.7064 26.1019 54.3103 47.8254 29.1396 45.9877C10.9483 44.6595 21.3758 26.3554 28.7945 22.7093C26.3078 21.0978 24.7185 17.3988 25.6442 16.3816C26.2867 15.6757 27.2126 16.0829 28.2321 16.5313C29.0192 16.8774 29.862 17.2481 30.6733 17.1501C31.1356 17.0816 31.7717 16.9004 32.4566 16.7052C33.7173 16.3459 35.1433 15.9396 35.9539 16.1028ZM34.2168 38.7813C34.7821 38.3432 35.1602 37.6979 35.2377 36.9843C35.2961 36.4462 35.2078 35.8799 34.939 35.4062L34.9405 35.4089C34.9918 35.4988 35.0391 35.5817 34.9369 35.4022C34.8317 35.2176 34.8827 35.3072 34.9351 35.3991C34.5973 34.8091 34.0108 34.4348 33.3919 34.1908C32.9824 34.0293 32.5547 33.9177 32.1272 33.8154V31.0121C32.4869 31.0759 32.8468 31.1901 33.1435 31.4092C33.2806 31.5103 33.4006 31.6329 33.4933 31.776C33.5409 31.8496 33.5823 31.9275 33.6142 32.0091C33.6304 32.0503 33.6423 32.0927 33.6543 32.1352C33.6657 32.1759 33.6772 32.2167 33.6924 32.2563C33.7966 32.5282 34.0602 32.7177 34.3511 32.7304C34.6472 32.743 34.9287 32.5722 35.0542 32.304C35.1154 32.173 35.1372 32.0251 35.1158 31.882C35.1025 31.7923 35.0743 31.7039 35.0462 31.618C35.0161 31.5258 34.9814 31.4355 34.9416 31.3472C34.7993 31.0306 34.597 30.7403 34.3498 30.4967C33.8281 29.9823 33.1303 29.6877 32.4168 29.5586C32.3208 29.5411 32.2243 29.5265 32.1275 29.5144V29.4544V28.7003C32.1275 28.4141 31.9565 28.1474 31.6964 28.0276C31.4329 27.9062 31.1141 27.9537 30.8969 28.1457C30.739 28.2853 30.6469 28.4894 30.6469 28.7003V29.4544V29.5188C29.9203 29.6217 29.1959 29.9016 28.6506 30.4035C28.3956 30.6383 28.1876 30.9215 28.0431 31.237C27.8889 31.5739 27.8186 31.9404 27.8214 32.3101C27.8241 32.6743 27.8903 33.0409 28.0501 33.37C28.2016 33.6819 28.4329 33.9453 28.7055 34.1574C29.2664 34.5935 29.9675 34.8206 30.6468 34.9964V37.9258C30.2994 37.8283 29.9662 37.6645 29.7046 37.4125C29.5777 37.2901 29.4675 37.1492 29.3795 36.9964C29.335 36.9188 29.2971 36.8372 29.2657 36.7534C29.2473 36.7043 29.2332 36.6543 29.219 36.6042C29.2088 36.5681 29.1985 36.5319 29.1867 36.4962C29.0952 36.2191 28.8405 36.0174 28.5498 35.9916C28.2545 35.9653 27.9653 36.1239 27.828 36.3864C27.7612 36.514 27.7328 36.6602 27.7475 36.8035C27.756 36.887 27.7803 36.9686 27.8043 37.0488L27.8059 37.0541C27.8328 37.1446 27.8636 37.2341 27.8982 37.322C28.0305 37.6583 28.2218 37.9699 28.4564 38.2445C28.9275 38.7953 29.5723 39.1676 30.2675 39.3586C30.3926 39.393 30.5192 39.4218 30.6468 39.446V40.3078C30.6468 40.594 30.8177 40.8608 31.0778 40.9805C31.3413 41.1019 31.6602 41.0545 31.8773 40.8625C32.0352 40.7228 32.1274 40.5188 32.1274 40.3078V39.5193C32.8712 39.4591 33.6199 39.2439 34.2168 38.7813Z" fill="#00D09C"/>
<path d="M33.6411 37.2689C33.635 37.2798 33.6297 37.2894 33.6255 37.2967C33.6291 37.2904 33.6345 37.2809 33.6411 37.2689Z" fill="#00D09C"/>
</svg>
