<svg width="9" height="14" viewBox="0 0 9 14" fill="none" xmlns="http://www.w3.org/2000/svg">
<path fill-rule="evenodd" clip-rule="evenodd" d="M1.04922 0H7.11744C7.62299 0 8.03677 0.413389 8.03677 0.919333V12.6918C8.03677 13.1981 7.62299 13.6111 7.11744 13.6111H1.04922C0.543661 13.6111 0.129883 13.1973 0.129883 12.6914V0.919333C0.129883 0.413389 0.543661 0 1.04922 0ZM5.05399 0.662667H3.11266C3.05122 0.662667 3.00144 0.712444 3.00144 0.774278C3.00144 0.835722 3.05122 0.8855 3.11266 0.8855H5.05399C5.11544 0.8855 5.16522 0.835722 5.16522 0.774278C5.16522 0.712444 5.11544 0.662667 5.05399 0.662667ZM4.08333 13.1514C3.82938 13.1514 3.62366 12.9457 3.62366 12.6914C3.62366 12.4371 3.82938 12.2317 4.08333 12.2317C4.33727 12.2317 4.54299 12.4371 4.54299 12.6914C4.54299 12.9457 4.33727 13.1514 4.08333 13.1514ZM0.769605 11.9097H7.39705V1.45794H0.769605V11.9097Z" fill="#00D09C"/>
</svg>
