<svg width="62" height="62" viewBox="0 0 62 62" fill="none" xmlns="http://www.w3.org/2000/svg">
<rect width="62" height="62" rx="4" fill="#E8F9F5"/>
<path d="M27.6425 32.4656C27.6425 32.1598 27.3945 31.9121 27.0885 31.9121H25.1553C24.8496 31.9121 24.6016 32.1598 24.6016 32.4656V34.3986C24.6016 34.7047 24.8496 34.9525 25.1553 34.9525H27.0885C27.3945 34.9525 27.6425 34.7047 27.6425 34.3986V32.4656Z" fill="#00D09C"/>
<path d="M32.4742 32.4656C32.4742 32.1598 32.2262 31.9121 31.9208 31.9121H29.9873C29.6816 31.9121 29.4336 32.1598 29.4336 32.4656V34.3986C29.4336 34.7047 29.6816 34.9525 29.9873 34.9525H31.9208C32.2262 34.9525 32.4742 34.7047 32.4742 34.3986V32.4656Z" fill="#00D09C"/>
<path d="M37.3061 32.4656C37.3061 32.1598 37.058 31.9121 36.7524 31.9121H34.8191C34.5131 31.9121 34.2651 32.1598 34.2651 32.4656V34.3986C34.2651 34.7047 34.5131 34.9525 34.8191 34.9525H36.7524C37.058 34.9525 37.3061 34.7047 37.3061 34.3986V32.4656Z" fill="#00D09C"/>
<path d="M27.6425 37.2975C27.6425 36.9912 27.3945 36.7437 27.0885 36.7437H25.1553C24.8496 36.7437 24.6016 36.9912 24.6016 37.2975V39.2301C24.6016 39.5361 24.8496 39.7838 25.1553 39.7838H27.0885C27.3945 39.7838 27.6425 39.536 27.6425 39.2301V37.2975Z" fill="#00D09C"/>
<path d="M32.4742 37.2975C32.4742 36.9912 32.2262 36.7437 31.9208 36.7437H29.9873C29.6816 36.7437 29.4336 36.9912 29.4336 37.2975V39.2301C29.4336 39.5361 29.6816 39.7838 29.9873 39.7838H31.9208C32.2262 39.7838 32.4742 39.536 32.4742 39.2301V37.2975Z" fill="#00D09C"/>
<path d="M37.3061 37.2975C37.3061 36.9912 37.058 36.7437 36.7526 36.7437H34.8191C34.5131 36.7437 34.2651 36.9912 34.2651 37.2975V39.2301C34.2651 39.5361 34.5131 39.7838 34.8191 39.7838H36.7526C37.058 39.7838 37.3061 39.536 37.3061 39.2301V37.2975Z" fill="#00D09C"/>
<path fill-rule="evenodd" clip-rule="evenodd" d="M40.7627 24.6702V21.7177C41.9288 21.7528 42.887 22.7178 42.887 23.9038V41.2069C42.887 42.4132 41.9058 43.4076 40.6993 43.4076H21.2083C19.9999 43.4076 19.0205 42.4152 19.0205 41.2069V23.9038C19.0205 22.7178 19.9788 21.7528 21.1449 21.7177V24.6702C21.1449 26.0047 22.2275 27.0801 23.5617 27.0801H25.0867C26.4209 27.0801 27.5178 26.0047 27.5178 24.6702V21.7071H34.3898V24.6702C34.3898 26.0047 35.4867 27.0801 36.8211 27.0801H38.3458C39.6801 27.0801 40.7627 26.0047 40.7627 24.6702ZM39.1087 41.0752C39.6311 41.0752 40.0545 40.6516 40.0545 40.1294L40.0545 31.1917C40.0545 30.6693 39.6311 30.2457 39.1087 30.2457H22.7572C22.2347 30.2457 21.8114 30.6693 21.8114 31.1917V40.1294C21.8114 40.6516 22.2348 41.0752 22.7572 41.0752H39.1087Z" fill="#00D09C"/>
<path d="M23.5564 25.4973H25.0645C25.5223 25.4973 25.8934 25.1266 25.8934 24.6689V19.8286C25.8934 19.3708 25.5223 19 25.0645 19H23.5564C23.0986 19 22.7275 19.3708 22.7275 19.8286V24.6689C22.7275 25.1266 23.0986 25.4973 23.5564 25.4973Z" fill="#00D09C"/>
<path d="M36.8015 25.4973H38.3096C38.7671 25.4973 39.1382 25.1266 39.1382 24.6689V19.8286C39.1383 19.3708 38.7671 19 38.3096 19H36.8015C36.3438 19 35.9727 19.3708 35.9727 19.8286V24.6689C35.9727 25.1266 36.3438 25.4973 36.8015 25.4973Z" fill="#00D09C"/>
</svg>
