<svg width="15" height="15" viewBox="0 0 15 15" fill="none" xmlns="http://www.w3.org/2000/svg">
<path opacity="0.5" fill-rule="evenodd" clip-rule="evenodd" d="M5.44 9.18C6.12 9.18 6.74666 9.01 7.32 8.67C7.89334 8.33 8.34667 7.87334 8.68 7.3C9.01334 6.72666 9.18 6.1 9.18 5.42C9.18 4.74 9.01334 4.11334 8.68 3.54C8.34667 2.96666 7.89334 2.51333 7.32 2.18C6.74666 1.84666 6.12 1.68 5.44 1.68C4.76 1.68 4.13334 1.84666 3.56 2.18C2.98666 2.51333 2.53 2.96666 2.19 3.54C1.85 4.11334 1.68 4.74 1.68 5.42C1.68 6.1 1.85 6.72666 2.19 7.3C2.53 7.87334 2.98666 8.33 3.56 8.67C4.13334 9.01 4.76 9.18 5.44 9.18ZM10.44 9.18L14.58 13.32L13.32 14.58L9.18 10.42V9.76L8.94 9.54C8.47333 9.95334 7.93667 10.27 7.33 10.49C6.72333 10.71 6.09334 10.82 5.44 10.82C4.45333 10.82 3.54334 10.58 2.71 10.1C1.87666 9.62 1.22 8.97334 0.74 8.16C0.246664 7.32 0 6.40667 0 5.42C0 4.43333 0.243331 3.52334 0.73 2.69C1.21667 1.85666 1.87666 1.2 2.71 0.72C3.54334 0.239998 4.45333 0 5.44 0C6.42667 0 7.34 0.246664 8.18 0.74C8.99334 1.22 9.63666 1.87333 10.11 2.7C10.5833 3.52667 10.82 4.43333 10.82 5.42C10.82 6.08667 10.71 6.72333 10.49 7.33C10.27 7.93667 9.95334 8.47333 9.54 8.94L9.76 9.18H10.44Z" fill="#222222"/>
</svg>
