<svg width="18" height="14" viewBox="0 0 18 14" fill="none" xmlns="http://www.w3.org/2000/svg">
<path id="Twitter__x28_alt_x29_" d="M15.9606 5.8779C16.9715 5.78995 17.6573 5.30531 17.9212 4.64772C17.5565 4.88395 16.4245 5.1415 15.7993 4.89622C15.7686 4.74132 15.7344 4.59419 15.7008 4.46136C15.2244 2.61679 13.5934 1.13074 11.8844 1.31026C12.0227 1.25139 12.1629 1.19658 12.3028 1.14737C12.4909 1.07632 13.5945 0.886959 13.4207 0.476147C13.2743 0.114806 11.9258 0.749227 11.6719 0.832148C12.0071 0.699227 12.5614 0.470587 12.6208 0.0644531C12.1073 0.138725 11.6032 0.394726 11.2137 0.766968C11.3543 0.607347 11.461 0.41282 11.4836 0.203464C10.1141 1.1261 9.31406 2.98621 8.66661 4.79057C8.15823 4.27102 7.70764 3.86189 7.30342 3.6347C6.16943 2.99344 4.81356 2.32438 2.68516 1.49119C2.61984 2.23378 3.03343 3.22116 4.22521 3.87777C3.967 3.84132 3.49482 3.92266 3.11717 4.01802C3.27097 4.86873 3.77324 5.56961 5.133 5.90853C4.51158 5.95178 4.19043 6.1009 3.89937 6.4223C4.1824 7.01396 4.87303 7.71029 6.11541 7.56735C4.73414 8.19516 5.5522 9.35778 6.67614 9.18439C4.75878 11.2728 1.73586 11.1193 0 9.37256C4.53221 15.885 14.3842 13.224 15.8524 6.95129C16.9524 6.96118 17.599 6.54948 18 6.0956C17.3662 6.20902 16.4476 6.09181 15.9606 5.8779Z" fill="#222222"/>
</svg>
